<?xml version="1.0" encoding="utf-8"?>
<!-- Generator: Adobe Illustrator 27.2.0, SVG Export Plug-In . SVG Version: 6.00 Build 0)  -->
<svg version="1.1" id="Layer_1" xmlns="http://www.w3.org/2000/svg" xmlns:xlink="http://www.w3.org/1999/xlink" x="0px" y="0px"
	 viewBox="0 0 303.1 223.6" style="enable-background:new 0 0 303.1 223.6;" xml:space="preserve">
<style type="text/css">
	.st0{fill:url(#SVGID_1_);}
	.st1{fill:url(#SVGID_00000119110967477992044150000000222791854586158522_);}
	.st2{fill:#DDD9D9;}
</style>
<g>
	
		<linearGradient id="SVGID_1_" gradientUnits="userSpaceOnUse" x1="155.5823" y1="1565.4341" x2="52.6336" y2="1743.7463" gradientTransform="matrix(1 0 0 1 0 -1558.7874)">
		<stop  offset="0" style="stop-color:#FFFFFF"/>
		<stop  offset="0.1239" style="stop-color:#ECEAEF"/>
		<stop  offset="0.3825" style="stop-color:#BCB6C3"/>
		<stop  offset="0.7503" style="stop-color:#6F6B84"/>
		<stop  offset="1" style="stop-color:#3B4362"/>
	</linearGradient>
	<path class="st0" d="M78.4,21.2c10.2,0,18.8,2.4,25.8,7.1c7,4.8,12.3,11.1,15.8,19.1c7.4-9.1,14.9-15.8,22.3-20
		c7.4-4.2,15.5-6.3,24.4-6.3c13.9,0,25.2,4.5,33.8,13.6s12.9,21.2,12.9,36.4v84.6h-34.8V77c0-9.1-2-16.3-5.9-21.6s-9.6-7.9-17-7.9
		c-10.6,0-20.9,6.8-30.7,20.5v87.7H90.3V76.4c0-9-2.1-16.1-6.2-21.3c-4.1-5.1-9.7-7.7-16.7-7.7c-5.7,0-10.8,1.6-15.5,4.9
		c-4.7,3.2-9.8,8.5-15.1,15.6v87.8H1.9v-132h34.8v18.5c6.3-7.1,12.7-12.4,19.2-15.9C62.4,22.9,69.9,21.2,78.4,21.2z"/>
</g>
<linearGradient id="SVGID_00000165230882040811238750000015736989886559779769_" gradientUnits="userSpaceOnUse" x1="280.7" y1="1647.1553" x2="178.6" y2="1647.1553" gradientTransform="matrix(1 0 0 1 0 -1558.7874)">
	<stop  offset="0" style="stop-color:#FFFFFF"/>
	<stop  offset="9.034579e-02" style="stop-color:#F8F7F9"/>
	<stop  offset="0.2353" style="stop-color:#E4E1E7"/>
	<stop  offset="0.4166" style="stop-color:#C4BEC9"/>
	<stop  offset="0.6273" style="stop-color:#968FA2"/>
	<stop  offset="0.8598" style="stop-color:#5D5C78"/>
	<stop  offset="1" style="stop-color:#3B4362"/>
</linearGradient>
<path style="fill:url(#SVGID_00000165230882040811238750000015736989886559779769_);" d="M237.7,125.9c6.2-7.4,12.1-15.2,17.6-23.3
	c3.1-4.6,5.5-8.4,7.4-11.6c1.8-3.1,3.6-7.2,5.4-12.3c1.7-5.1,2.6-10.6,2.6-16.5c0-8.3-1.9-15.5-5.7-21.8c-3.8-6.2-9-11-15.6-14.3
	s-14-4.9-22.1-4.9c-5,0-9.7,0.5-14.1,1.5c-4.3,1-8.1,2.2-11.2,3.6c-2.6,1.2-4.9,2.3-7,3.5c2,1.5,3.8,3.1,5.5,4.9
	c4.5,4.8,7.8,10.3,9.9,16.7c2.1-0.4,4.2-0.6,6.3-0.6c5.5,0,10,1.9,13.5,5.7s5.3,8.8,5.3,14.9c0,4.5-0.7,8.8-2.2,13.1
	c-1.5,4.3-3.3,8.2-5.4,11.7c-2.1,3.5-4.6,7.2-7.6,11s-6.1,7.6-9.5,11.5c-7.3,8.6-13.3,15.5-18,20.8c-4.7,5.2-10.3,9.7-14.2,13.5v2.6
	h102.1v-29.7H237.7z"/>
<g>
	<path class="st2" d="M7.5,177.6v6.3l0.3-0.5c2.6-4.2,5.2-6.3,7.8-6.3c2,0,4.2,1,6.4,3.1l-2.8,4.7c-1.9-1.8-3.6-2.7-5.2-2.7
		c-1.7,0-3.2,0.8-4.5,2.5s-1.9,3.6-1.9,5.9v14.3H2.1v-27.3H7.5z"/>
	<path class="st2" d="M56.9,191.8H37.7c0.1,2.6,1,4.7,2.6,6.2s3.7,2.3,6.2,2.3c3.6,0,6.8-1.1,9.8-3.3v5.3c-1.7,1.1-3.3,1.9-4.9,2.4
		c-1.6,0.5-3.5,0.7-5.7,0.7c-3,0-5.4-0.6-7.3-1.9c-1.9-1.2-3.3-2.9-4.5-5c-1.1-2.1-1.7-4.5-1.7-7.3c0-4.2,1.2-7.5,3.5-10.1
		c2.4-2.6,5.4-3.9,9.2-3.9c3.6,0,6.5,1.3,8.7,3.8s3.2,5.9,3.2,10.2v0.6H56.9z M37.8,188.5h13.7c-0.1-2.2-0.8-3.8-1.9-5
		c-1.1-1.2-2.7-1.7-4.6-1.7c-1.9,0-3.5,0.6-4.8,1.7C39,184.7,38.2,186.4,37.8,188.5z"/>
	<path class="st2" d="M92.3,198.5v5.3c-2.7,1-5.4,1.5-7.9,1.5c-4.3,0-7.7-1.3-10.2-3.8s-3.8-5.9-3.8-10.2s1.2-7.7,3.7-10.4
		c2.5-2.6,5.7-3.9,9.8-3.9c1.4,0,2.7,0.1,3.8,0.4s2.5,0.8,4.1,1.5v5.8c-2.7-1.7-5.3-2.6-7.6-2.6c-2.4,0-4.4,0.9-6,2.6
		c-1.6,1.7-2.3,3.9-2.3,6.5c0,2.8,0.8,5,2.5,6.6s4,2.5,6.8,2.5C87.3,200.4,89.6,199.8,92.3,198.5z"/>
	<path class="st2" d="M120.6,177.6c4.2,0,7.6,1.3,10.3,4s4.1,6,4.1,10.1c0,3.9-1.4,7.2-4.2,9.8s-6.3,3.9-10.5,3.9
		c-4.1,0-7.5-1.3-10.3-4c-2.7-2.6-4.1-5.9-4.1-9.9s1.4-7.3,4.2-10C112.9,178.9,116.4,177.6,120.6,177.6z M120.3,182.4
		c-2.6,0-4.7,0.8-6.4,2.5s-2.5,3.9-2.5,6.5s0.8,4.7,2.5,6.4s3.9,2.5,6.6,2.5c2.6,0,4.8-0.8,6.5-2.5s2.5-3.8,2.5-6.4
		c0-2.6-0.9-4.7-2.6-6.4S123,182.4,120.3,182.4z"/>
	<path class="st2" d="M166.3,177.6h5.9l-12,27.8h-1.8l-12.3-27.8h5.9l7.4,16.8L166.3,177.6z"/>
	<path class="st2" d="M207.3,191.8h-19.2c0.1,2.6,1,4.7,2.6,6.2s3.7,2.3,6.2,2.3c3.6,0,6.8-1.1,9.8-3.3v5.3
		c-1.7,1.1-3.3,1.9-4.9,2.4c-1.6,0.5-3.5,0.7-5.7,0.7c-3,0-5.4-0.6-7.3-1.9c-1.9-1.2-3.3-2.9-4.5-5c-1.1-2.1-1.7-4.5-1.7-7.3
		c0-4.2,1.2-7.5,3.5-10.1c2.4-2.6,5.4-3.9,9.2-3.9c3.6,0,6.5,1.3,8.7,3.8s3.2,5.9,3.2,10.2L207.3,191.8L207.3,191.8z M188.3,188.5
		H202c-0.1-2.2-0.8-3.8-1.9-5c-1.1-1.2-2.7-1.7-4.6-1.7s-3.5,0.6-4.8,1.7C189.4,184.7,188.6,186.4,188.3,188.5z"/>
	<path class="st2" d="M228.1,177.6v6.3l0.3-0.5c2.6-4.2,5.2-6.3,7.8-6.3c2,0,4.2,1,6.4,3.1l-2.8,4.7c-1.9-1.8-3.6-2.7-5.2-2.7
		c-1.7,0-3.2,0.8-4.5,2.5s-1.9,3.6-1.9,5.9v14.3h-5.4v-27.3H228.1z"/>
	<path class="st2" d="M274,177.6h6.1l-19.3,41.2h-6l9.3-19.8l-10.5-21.4h6.1l7.4,15.4L274,177.6z"/>
</g>
<g>
	<path class="st2" d="M279,32.2c-5.6,0-10.1-4.5-10.1-10.1S273.5,12,279,12c5.6,0,10.1,4.5,10.1,10.1S284.6,32.2,279,32.2z
		 M279,14.1c-4.4,0-8.1,3.6-8.1,8.1c0,4.4,3.6,8.1,8.1,8.1s8.1-3.6,8.1-8.1C287.1,17.7,283.5,14.1,279,14.1z"/>
</g>
<g>
	<path class="st2" d="M278.5,21.3c0.6,0,1-0.1,1.2-0.3c0.2-0.2,0.4-0.6,0.4-1c0-0.5-0.1-0.8-0.4-1c-0.2-0.2-0.7-0.3-1.2-0.3h-1.1
		v2.7H278.5 M277.3,23.2v4h-2.7V16.6h4.2c1.4,0,2.4,0.2,3.1,0.7c0.7,0.5,1,1.2,1,2.2c0,0.7-0.2,1.3-0.5,1.7c-0.3,0.4-0.8,0.8-1.5,1
		c0.4,0.1,0.7,0.3,1,0.6c0.3,0.3,0.6,0.7,0.9,1.4l1.5,3h-2.9l-1.3-2.6c-0.3-0.5-0.5-0.9-0.8-1.1c-0.3-0.2-0.6-0.3-1.1-0.3H277.3"/>
</g>
</svg>
